<svg width="100" height="100" viewBox="0 0 100 100" fill="none" xmlns="http://www.w3.org/2000/svg">
<g clip-path="url(#clip0_76_18)">
<circle cx="50" cy="50" r="50" fill="#1155FF"/>
<mask id="mask0_76_18" style="mask-type:alpha" maskUnits="userSpaceOnUse" x="-21" y="-21" width="142" height="142">
<path d="M118.196 -19.5365C118.197 -19.5371 118.196 -19.5269 118.193 -19.5043C118.194 -19.5246 118.195 -19.5359 118.196 -19.5365ZM113.727 -14.8216C114.993 -15.7223 116.08 -16.4427 116.987 -16.9875C116.443 -16.0804 115.722 -14.9925 114.822 -13.7268C111.931 -9.66507 107.391 -4.05763 101.522 2.71247C89.795 16.2388 72.8853 34.2644 53.5748 53.5749C34.2643 72.8854 16.2388 89.7951 2.71243 101.522C-4.05768 107.391 -9.66512 111.931 -13.7268 114.822C-14.9926 115.722 -16.0805 116.443 -16.9875 116.988C-16.4428 116.08 -15.7223 114.993 -14.8216 113.727C-11.9312 109.665 -7.39126 104.058 -1.52186 97.2876C10.2049 83.7612 27.1147 65.7357 46.4252 46.4252C65.7357 27.1147 83.7612 10.205 97.2875 -1.52181C104.058 -7.39122 109.665 -11.9312 113.727 -14.8216ZM-19.5365 118.196C-19.5359 118.196 -19.5247 118.194 -19.5043 118.193C-19.5269 118.196 -19.5371 118.197 -19.5365 118.196ZM-18.1961 119.537C-18.1968 119.537 -18.1963 119.527 -18.1929 119.504C-18.1938 119.525 -18.1955 119.536 -18.1961 119.537ZM119.504 -18.1928C119.527 -18.1963 119.537 -18.1967 119.536 -18.1961C119.536 -18.1955 119.525 -18.1938 119.504 -18.1928Z" stroke="white" stroke-width="4"/>
<path d="M119.536 118.196C119.537 118.197 119.527 118.196 119.504 118.193C119.525 118.194 119.536 118.196 119.536 118.196ZM114.822 113.727C115.722 114.993 116.443 116.08 116.987 116.988C116.08 116.443 114.992 115.722 113.727 114.822C109.665 111.931 104.058 107.391 97.2875 101.522C83.7611 89.795 65.7356 72.8853 46.4251 53.5748C27.1146 34.2643 10.2049 16.2388 -1.52189 2.71244C-7.3913 -4.05767 -11.9312 -9.66511 -14.8216 -13.7268C-15.7224 -14.9925 -16.4428 -16.0805 -16.9876 -16.9875C-16.0805 -16.4428 -14.9926 -15.7223 -13.7268 -14.8216C-9.66515 -11.9312 -4.05772 -7.39126 2.71239 -1.52185C16.2388 10.205 34.2643 27.1147 53.5748 46.4252C72.8853 65.7357 89.795 83.7612 101.522 97.2876C107.391 104.058 111.931 109.665 114.822 113.727ZM-18.1962 -19.5365C-18.1956 -19.5359 -18.1938 -19.5247 -18.1929 -19.5043C-18.1964 -19.5269 -18.1968 -19.5371 -18.1962 -19.5365ZM-19.5365 -18.1961C-19.5371 -18.1968 -19.5269 -18.1963 -19.5044 -18.1929C-19.5247 -18.1938 -19.536 -18.1955 -19.5365 -18.1961ZM118.193 119.504C118.196 119.527 118.197 119.537 118.196 119.537C118.195 119.536 118.194 119.525 118.193 119.504Z" stroke="white" stroke-width="4"/>
</mask>
<g mask="url(#mask0_76_18)">
<rect x="22.8855" y="23.5667" width="52.4445" height="52.4445" fill="white" stroke="white" stroke-width="4"/>
</g>
</g>
<defs>
<clipPath id="clip0_76_18">
<rect width="100" height="100" fill="white"/>
</clipPath>
</defs>
</svg>
